<?xml version="1.0" standalone="no"?>
<!DOCTYPE svg PUBLIC "-//W3C//DTD SVG 20010904//EN"
 "http://www.w3.org/TR/2001/REC-SVG-20010904/DTD/svg10.dtd">
<svg version="1.0" xmlns="http://www.w3.org/2000/svg"
 width="556.000000pt" height="558.000000pt" viewBox="0 0 556.000000 558.000000"
 preserveAspectRatio="xMidYMid meet">

<g transform="translate(0.000000,558.000000) scale(0.100000,-0.100000)"
fill="#000000" stroke="none">
<path d="M2880 5453 c-1 -64 -3 -71 -39 -112 -37 -44 -39 -44 -70 -31 -44 18
-61 56 -61 135 0 76 -12 82 -45 22 l-20 -36 30 -88 c16 -48 41 -135 57 -193
15 -58 26 -88 24 -68 -3 21 -1 40 4 43 18 11 31 -75 37 -246 l6 -176 -129 -7
c-121 -7 -234 -19 -296 -32 l-28 -6 0 137 c0 116 -3 142 -20 175 -17 33 -53
60 -65 48 -2 -2 3 -30 10 -63 14 -58 13 -61 -12 -112 -22 -46 -29 -53 -55 -53
-46 0 -84 45 -99 119 -14 64 -22 73 -39 42 -20 -37 -11 -85 26 -147 49 -80 94
-175 88 -186 -26 -42 -138 63 -202 190 -51 101 -95 234 -131 394 -31 138 -48
174 -87 184 -37 9 -40 -1 -14 -53 21 -42 22 -51 12 -106 -13 -68 -24 -80 -67
-71 -39 8 -67 36 -104 103 -27 49 -30 52 -40 33 -20 -37 -1 -79 70 -159 37
-42 85 -100 106 -129 41 -57 58 -68 48 -31 -5 18 0 15 27 -14 36 -40 133 -225
173 -332 22 -60 23 -68 9 -74 -9 -3 -20 0 -25 8 -7 11 -9 9 -9 -7 0 -14 -10
-26 -30 -34 -17 -7 -32 -11 -35 -9 -6 7 -45 158 -60 236 -17 87 -35 125 -74
152 -30 22 -66 27 -75 13 -3 -5 11 -39 30 -76 35 -65 35 -68 24 -119 -25 -107
-21 -102 -77 -105 -65 -4 -97 22 -143 115 -19 37 -35 70 -37 72 -9 13 -33 -27
-34 -58 l-1 -36 -8 35 c-9 38 -42 70 -71 70 -24 0 -24 4 6 -64 19 -44 23 -61
15 -82 -6 -14 -10 -36 -10 -48 0 -34 -24 -49 -65 -42 -42 8 -69 35 -98 99 -24
52 -31 56 -47 27 -16 -30 16 -93 83 -165 31 -33 76 -86 99 -117 42 -56 69 -78
48 -39 -36 68 23 12 67 -63 l34 -59 -39 -40 -40 -40 -48 28 c-126 74 -252 238
-382 498 -25 51 -57 102 -71 114 -30 26 -81 31 -81 8 0 -8 4 -15 9 -15 4 0 20
-17 35 -39 24 -34 27 -47 24 -102 l-3 -63 -35 -7 c-45 -9 -78 8 -127 66 -39
48 -60 47 -49 -2 10 -41 22 -53 111 -113 44 -29 98 -67 120 -85 58 -46 70 -52
62 -32 -34 89 253 -216 313 -332 11 -21 10 -27 -6 -41 -11 -8 -20 -22 -22 -30
-2 -8 -8 -19 -13 -25 -14 -14 -39 21 -104 155 -32 63 -67 124 -79 136 -29 28
-61 35 -83 18 -10 -7 -13 -14 -7 -14 6 0 25 -20 42 -44 27 -37 32 -54 32 -98
0 -65 -11 -78 -64 -78 -36 0 -46 6 -91 55 -29 30 -55 55 -58 55 -4 0 -7 -15
-7 -34 0 -37 39 -80 115 -125 22 -14 77 -53 122 -88 l82 -63 -55 -88 c-30 -48
-60 -89 -65 -90 -26 -10 -197 128 -342 276 -77 78 -106 101 -134 107 -26 5
-40 2 -51 -9 -13 -13 -9 -18 36 -45 42 -26 52 -39 66 -81 22 -67 21 -77 -15
-96 -39 -20 -71 -14 -138 25 -61 37 -61 36 -61 12 0 -32 68 -91 104 -91 16 0
222 -67 249 -81 20 -11 23 1 5 20 -35 37 123 -37 230 -107 10 -7 9 -20 -9 -67
l-21 -58 -67 6 c-36 2 -95 15 -131 27 -92 31 -312 138 -399 194 -80 52 -126
65 -160 46 -32 -17 -22 -31 34 -50 37 -13 57 -27 82 -61 39 -54 40 -72 7 -98
-32 -25 -83 -27 -148 -5 -53 18 -63 15 -47 -15 20 -36 61 -48 186 -55 66 -3
147 -8 180 -11 56 -6 58 -5 30 8 -16 7 -25 16 -19 20 16 9 147 -20 281 -65
l122 -40 -6 -31 c-13 -65 -39 -141 -50 -144 -6 -2 -31 12 -57 32 -49 37 -99
54 -110 37 -3 -5 8 -15 25 -22 28 -12 59 -54 59 -80 0 -22 -49 -31 -87 -15
-41 17 -55 12 -31 -11 8 -8 52 -21 97 -28 45 -7 84 -15 86 -18 3 -3 -2 -52
-10 -109 -8 -57 -15 -108 -15 -113 0 -17 -217 22 -325 58 -72 25 -169 63 -220
86 -68 31 -119 37 -150 16 -14 -9 -25 -20 -25 -25 0 -5 29 -14 65 -21 36 -7
65 -15 65 -19 0 -3 16 -23 35 -44 31 -33 34 -41 23 -60 -25 -47 -38 -52 -125
-50 -68 2 -83 -1 -83 -13 0 -8 17 -22 37 -31 33 -13 53 -14 163 -3 175 17 251
27 213 29 -18 0 -33 6 -33 13 0 8 28 9 102 5 139 -8 248 -27 248 -43 0 -7 3
-19 6 -27 4 -12 -1 -13 -36 -4 -28 8 -46 8 -57 1 -31 -19 -24 -32 19 -38 55
-8 106 -63 88 -96 -12 -22 -32 -29 -102 -32 -39 -3 -46 -6 -38 -18 7 -11 27
-15 75 -15 l65 0 0 -32 c0 -18 -4 -33 -9 -33 -15 0 -160 30 -249 51 -81 19
-85 19 -120 2 -21 -10 -38 -26 -40 -35 -3 -16 5 -18 58 -18 56 0 66 -3 106
-36 50 -41 54 -61 20 -101 -21 -25 -31 -28 -100 -31 -84 -5 -99 -20 -46 -47
37 -19 53 -19 121 4 69 23 279 75 283 70 5 -6 77 -262 74 -264 -2 0 -14 -8
-28 -16 -89 -55 -293 -98 -510 -106 -95 -4 -168 -12 -188 -20 -30 -12 -62 -56
-50 -68 3 -3 31 1 63 10 49 12 61 13 84 1 14 -8 38 -19 53 -25 22 -8 28 -17
28 -39 0 -48 -34 -79 -111 -103 -38 -11 -69 -23 -69 -25 0 -2 14 -11 31 -19
38 -20 79 -8 159 45 30 21 92 57 138 80 86 44 99 55 57 44 -14 -3 -25 -2 -25
4 0 29 379 146 410 127 5 -3 10 -12 10 -20 0 -7 4 -15 8 -17 4 -1 32 -48 61
-103 29 -55 66 -118 82 -142 16 -23 29 -46 29 -51 0 -5 -27 -39 -61 -75 -84
-93 -259 -205 -429 -276 -126 -53 -158 -72 -174 -106 -9 -18 -13 -40 -10 -49
5 -13 15 -10 56 21 45 33 56 36 106 34 68 -3 82 -13 82 -57 0 -37 -49 -100
-101 -131 -33 -20 -29 -33 9 -33 24 0 68 22 82 41 24 31 66 85 129 161 51 62
67 88 52 83 -12 -3 -21 -2 -21 3 0 14 109 112 188 170 55 41 62 49 57 72 -3
15 -1 37 4 51 10 24 10 24 10 2 1 -13 3 -23 6 -23 3 0 24 15 48 33 40 30 47
32 98 27 l54 -5 3 -41 c3 -37 -1 -45 -50 -92 l-53 -52 31 0 c17 0 42 9 56 19
25 20 25 20 23 -2 -3 -41 -206 -166 -400 -247 -107 -45 -155 -83 -155 -125 0
-33 7 -32 65 9 44 32 52 34 104 29 31 -3 60 -9 65 -14 13 -12 9 -77 -7 -99 -7
-11 -35 -36 -61 -55 -49 -38 -52 -55 -9 -55 36 0 78 33 122 98 21 31 58 80 82
107 25 28 51 59 59 69 14 18 13 18 -8 11 -22 -6 -23 -5 -12 14 15 30 201 182
217 179 7 -2 49 -32 93 -67 90 -73 91 -74 65 -194 -26 -122 -130 -315 -271
-503 -59 -79 -74 -122 -54 -160 8 -13 17 -24 21 -24 4 0 15 22 24 49 18 55 23
61 87 95 51 27 69 22 93 -25 17 -32 9 -83 -22 -143 -20 -38 -4 -53 29 -27 34
27 44 57 58 171 7 52 18 124 25 160 13 64 13 64 -6 40 l-19 -25 0 27 c0 37 53
185 110 306 l49 102 35 -17 c20 -9 36 -22 36 -29 0 -11 -67 -105 -154 -217
-10 -13 -12 -27 -6 -48 19 -65 31 -64 63 4 20 44 32 57 76 80 29 15 57 27 62
27 15 0 49 -63 49 -90 0 -14 -11 -49 -25 -79 -14 -30 -23 -56 -21 -59 3 -2 16
-2 29 2 34 8 64 84 71 176 3 41 9 87 13 101 l8 27 95 -38 c52 -21 94 -42 93
-47 -1 -4 -17 -35 -37 -67 -40 -66 -46 -117 -20 -154 18 -26 34 -29 35 -4 1
29 53 124 74 136 11 6 34 21 52 33 41 30 59 29 88 -3 38 -41 40 -80 11 -168
-31 -91 -30 -86 -8 -86 48 1 84 69 90 173 4 67 7 77 24 77 10 0 21 -6 24 -14
6 -16 -39 -223 -66 -302 -24 -69 -25 -122 -4 -152 28 -40 44 -28 44 32 0 47 4
59 36 98 48 57 55 60 92 38 38 -23 57 -83 48 -152 -7 -51 1 -59 27 -30 29 32
30 81 3 187 -27 109 -50 250 -43 262 3 5 50 7 105 5 83 -3 102 -6 108 -20 4
-9 9 -75 12 -147 4 -135 -13 -307 -45 -428 -18 -71 -13 -140 12 -167 29 -32
35 -24 35 43 0 50 5 68 23 91 12 16 29 38 38 50 17 20 18 20 53 3 46 -21 63
-63 65 -159 1 -43 21 -44 40 -2 16 36 14 66 -10 125 -11 29 -36 112 -55 183
-19 72 -31 112 -28 90 6 -43 -10 -70 -20 -36 -13 39 -25 172 -26 268 l0 102
44 11 c25 6 59 11 76 11 30 0 31 -1 24 -35 -7 -39 1 -85 16 -85 6 0 10 14 10
30 0 30 35 90 52 90 21 0 48 -42 48 -75 0 -19 4 -35 10 -35 18 0 21 47 6 85
-9 21 -16 41 -16 45 0 4 19 12 41 19 32 10 44 10 49 1 12 -20 21 -208 14 -306
-6 -79 -4 -101 11 -134 16 -35 48 -60 61 -47 3 3 1 30 -5 61 -9 51 -8 59 16
107 32 61 45 68 88 45 37 -20 60 -63 70 -130 8 -50 18 -58 36 -25 19 37 4 100
-49 193 -28 49 -60 115 -73 147 -23 64 -44 90 -28 37 11 -40 11 -38 1 -38 -9
0 -35 55 -47 98 -6 20 0 26 49 48 66 30 73 28 146 -53 83 -94 191 -335 236
-531 21 -90 36 -116 80 -140 39 -21 46 1 19 52 -23 42 -25 56 -19 108 8 71 26
86 83 69 26 -7 44 -23 67 -58 17 -26 34 -57 38 -68 7 -20 8 -20 22 -1 30 42
11 77 -103 191 -44 44 -94 98 -112 120 -32 40 -32 40 -26 10 l6 -30 -36 40
c-40 44 -151 231 -186 314 -17 40 -20 56 -11 59 7 2 18 9 25 15 18 17 55 37
67 37 5 0 10 -11 10 -24 0 -55 46 -126 81 -126 17 0 17 3 -3 50 -19 47 -20 53
-6 102 13 46 18 53 42 56 40 5 70 -19 100 -83 28 -60 46 -64 46 -11 0 22 -11
48 -32 76 -18 24 -39 50 -46 60 -10 14 -8 20 12 39 14 13 29 20 34 17 10 -6
39 -93 66 -198 22 -86 43 -119 84 -132 38 -12 41 2 11 58 -29 52 -29 55 -16
112 l13 59 41 3 c33 3 44 -2 70 -28 17 -17 39 -49 48 -71 20 -44 38 -46 43 -6
5 39 -18 74 -117 175 -139 141 -136 124 -41 223 45 46 91 99 103 116 12 18 27
33 33 33 23 0 114 -67 181 -136 78 -79 208 -247 255 -332 45 -79 97 -113 143
-96 14 6 9 15 -28 53 -41 41 -46 52 -52 107 l-7 62 35 11 c45 15 94 -3 143
-54 38 -39 59 -38 49 4 -9 38 -40 66 -104 97 -51 25 -160 85 -221 123 l-25 15
19 -22 c11 -12 17 -24 14 -27 -14 -15 -218 154 -298 248 l-33 38 34 65 c49 96
49 96 117 25 35 -37 67 -61 80 -61 34 0 33 14 -3 39 -25 17 -35 33 -40 61 -4
22 -4 44 0 50 11 18 65 11 103 -15 22 -15 38 -21 41 -14 7 22 -43 58 -110 79
-37 11 -71 25 -74 30 -3 5 7 40 23 77 16 38 35 85 42 106 6 20 17 37 23 37 29
0 198 -132 317 -248 96 -94 122 -112 157 -112 56 0 57 21 2 54 -42 26 -55 40
-70 81 -27 71 -25 84 16 101 42 17 73 11 136 -28 55 -33 59 -34 59 -8 0 37
-54 75 -132 94 -40 10 -112 31 -160 47 -105 34 -107 35 -77 9 41 -34 0 -24
-97 24 -141 70 -132 52 -104 200 16 81 29 126 37 126 49 0 292 -123 442 -224
60 -41 117 -48 147 -19 16 16 13 18 -38 37 -58 22 -88 42 -88 58 0 5 -9 21
-20 35 -26 33 -25 37 7 68 34 31 73 32 149 6 l55 -20 -3 21 c-6 43 -49 61
-165 69 -60 4 -139 10 -178 13 -59 5 -66 4 -45 -6 l25 -12 -33 -4 c-18 -2 -82
11 -142 28 l-108 32 -4 187 c-2 102 -2 187 -1 189 0 2 30 -9 65 -23 80 -35
130 -42 147 -21 11 13 7 16 -26 22 -43 7 -93 48 -93 76 0 32 43 51 102 43 l53
-7 -23 25 -24 25 67 7 c79 9 239 0 384 -22 111 -16 154 -13 183 14 36 33 23
46 -40 40 -55 -6 -62 -4 -110 29 -29 19 -52 40 -52 47 0 6 9 26 20 44 21 35
67 53 138 53 46 0 52 8 24 33 -29 26 -80 20 -178 -19 -49 -20 -125 -47 -168
-60 -93 -28 -104 -34 -45 -27 30 4 40 3 35 -5 -16 -26 -238 -62 -389 -62 -80
0 -99 3 -104 16 -3 9 0 20 7 24 9 6 7 9 -7 14 -14 4 -23 22 -31 57 -7 28 -9
56 -6 61 10 15 358 3 463 -16 46 -9 96 -13 110 -9 39 9 71 33 71 53 0 16 -8
17 -65 12 -56 -4 -69 -2 -88 15 -12 11 -32 26 -44 32 -31 16 -29 44 5 81 23
26 38 33 100 42 74 11 83 17 57 38 -24 20 -99 15 -151 -10 -27 -12 -100 -40
-164 -61 -101 -33 -110 -38 -75 -39 l40 -2 -33 -14 c-18 -8 -82 -22 -143 -30
-106 -16 -110 -16 -124 2 -8 11 -17 30 -20 43 -9 34 -72 164 -126 258 l-47 83
46 45 c83 80 275 164 492 214 166 39 179 43 205 69 23 23 34 62 18 62 -4 0
-31 -10 -61 -22 -50 -21 -56 -21 -110 -7 -54 13 -57 16 -60 47 -5 47 19 77 90
113 58 29 61 32 43 45 -10 8 -25 14 -32 14 -24 0 -75 -31 -122 -75 -25 -23
-86 -72 -136 -109 -71 -52 -98 -66 -126 -66 -45 0 -59 15 -59 64 0 35 6 46 56
94 43 41 53 57 43 63 -19 12 -25 11 -51 -3 -35 -21 -61 -50 -91 -101 -15 -26
-50 -77 -77 -113 -28 -36 -50 -67 -50 -70 0 -2 7 -4 16 -4 15 0 15 -2 0 -26
-10 -14 -16 -32 -14 -40 3 -17 104 29 248 111 75 44 102 52 85 26 -8 -14 -179
-115 -239 -141 -25 -11 -66 -29 -91 -40 -44 -19 -45 -19 -35 0 10 20 14 60 5
60 -3 0 -23 -12 -44 -26 -35 -23 -45 -25 -100 -18 l-61 7 0 34 c0 48 13 67 70
102 51 32 58 51 17 51 -20 0 -47 -14 -99 -52 -14 -10 -26 -4 -80 48 -35 33
-100 89 -145 124 -46 35 -83 67 -83 71 0 5 11 16 26 25 29 19 54 63 47 82 -4
9 -14 4 -32 -17 -18 -22 -36 -32 -61 -33 -32 -3 -35 0 -38 26 -2 18 4 40 17
57 12 16 21 33 21 40 0 7 10 9 27 6 22 -4 43 8 123 73 52 43 120 94 150 113
70 47 82 56 103 89 19 31 21 46 7 68 -7 12 -17 6 -53 -31 -39 -41 -50 -47
-102 -54 -67 -8 -85 5 -85 58 0 35 13 61 57 110 34 38 36 57 5 57 -34 0 -70
-47 -130 -167 -33 -67 -67 -132 -76 -145 -20 -29 -21 -44 -1 -28 9 7 18 10 21
7 9 -9 -13 -42 -97 -147 l-80 -99 -52 23 c-29 13 -65 30 -82 37 -16 7 -33 17
-36 22 -8 11 6 97 27 161 27 85 129 285 199 391 71 107 87 156 61 190 -18 24
-29 15 -46 -40 -15 -49 -24 -61 -59 -78 -14 -7 -36 -20 -48 -28 -21 -12 -25
-11 -50 14 -22 22 -27 35 -25 70 1 24 8 60 17 80 19 45 19 57 2 57 -28 0 -49
-37 -42 -72 7 -33 7 -33 -10 -10 -18 25 -35 29 -35 8 0 -20 -40 -106 -49 -106
-5 0 -25 -12 -46 -26 -33 -22 -41 -24 -61 -13 -39 21 -50 63 -32 128 9 31 19
64 23 74 6 16 4 18 -16 15 -42 -6 -62 -58 -70 -189 -4 -65 -11 -140 -14 -166
-7 -45 -6 -47 9 -28 15 19 15 19 16 -8 0 -15 7 -42 17 -60 14 -28 14 -30 0
-19 -18 15 -20 13 -37 -50 -7 -27 -18 -48 -25 -48 -6 0 -20 -9 -30 -20 -24
-27 -53 -22 -78 12 -19 25 -19 29 -5 87 13 52 14 61 2 61 -8 0 -23 -15 -35
-32 -17 -29 -19 -43 -13 -110 9 -110 6 -115 -61 -108 -30 3 -57 8 -59 11 -3 3
-12 31 -21 64 -30 116 -14 374 35 583 12 49 18 99 14 115 -6 27 -39 67 -56 67
-4 0 -8 -30 -8 -67z m650 -241 c0 -10 -6 -27 -14 -38 -13 -17 -13 -15 -3 19
13 41 17 46 17 19z m-46 -149 c-17 -116 -17 -136 0 -98 18 43 28 16 16 -42
-22 -102 -105 -333 -119 -333 -13 0 -134 31 -142 35 -19 12 51 191 128 330 57
102 118 195 128 195 0 0 -4 -39 -11 -87z m-1940 -493 c40 -41 90 -97 111 -124
37 -46 39 -50 21 -60 -10 -6 -38 -26 -61 -43 -24 -18 -48 -33 -53 -33 -12 0
-56 132 -86 255 -13 55 -27 109 -31 120 -3 11 1 7 11 -10 9 -16 49 -64 88
-105z m912 -166 c33 -9 65 -16 72 -15 6 1 12 -5 12 -13 0 -8 9 -18 21 -21 19
-6 20 -8 3 -26 -13 -15 -14 -19 -3 -19 9 -1 8 -4 -5 -12 -10 -6 -27 -18 -38
-27 -28 -24 -59 -29 -100 -15 -21 7 -77 20 -125 29 -82 15 -96 15 -183 0 -140
-24 -129 -26 -151 29 -11 27 -16 53 -12 57 9 9 108 35 167 44 22 3 42 7 44 9
11 12 246 -4 298 -20z m-651 -171 c14 -21 25 -42 25 -48 0 -10 -118 -85 -134
-85 -5 0 -22 -10 -39 -22 -40 -29 -63 -30 -63 -4 1 12 3 23 6 26 3 3 18 23 34
45 42 58 116 125 138 125 4 0 19 -17 33 -37z m2500 -293 c-3 -5 -12 -10 -18
-10 -7 0 -6 4 3 10 19 12 23 12 15 0z m-3145 -30 c0 -19 -19 -20 -29 -1 -16
28 -14 33 9 21 11 -6 20 -15 20 -20z m3012 -123 c7 -7 21 -16 30 -20 42 -16
145 -201 178 -319 36 -133 33 -149 -51 -245 -28 -32 -62 -77 -76 -100 -14 -24
-28 -43 -32 -43 -5 0 -16 9 -26 20 -10 11 -15 20 -11 20 4 0 -1 12 -12 28 -20
28 -72 147 -75 172 -2 8 -5 20 -8 25 -15 25 -59 185 -64 230 -10 97 -11 120
-2 138 4 10 10 28 12 39 10 48 33 68 80 68 24 0 50 -6 57 -13z m-1551 -150
c-19 -7 -41 -22 -49 -35 -13 -20 -13 -22 1 -16 22 8 102 -34 117 -61 7 -14 9
-28 4 -37 -25 -40 -81 -108 -94 -113 -19 -8 -59 23 -89 68 -29 44 -43 46 -58
10 -10 -26 -11 -25 -12 22 -2 98 76 176 174 174 l40 0 -34 -12z m-1298 -90
c18 -8 39 -22 47 -33 12 -15 9 -14 -17 4 -42 30 -83 37 -108 18 -23 -17 -25
-15 36 -43 36 -17 51 -32 68 -65 27 -56 26 -62 -4 -82 -32 -21 -63 -20 -120 4
-58 25 -64 25 -58 -1 7 -24 42 -49 86 -59 27 -7 28 -8 7 -9 -14 0 -39 8 -57
19 -92 55 -81 203 17 244 44 19 63 19 103 3z m1178 -194 c13 -16 12 -17 -3 -4
-10 7 -18 15 -18 17 0 8 8 3 21 -13z m1787 -530 c-10 -2 -26 -2 -35 0 -10 3
-2 5 17 5 19 0 27 -2 18 -5z m109 -82 c20 -47 8 -104 -29 -141 -16 -17 -35
-30 -41 -30 -8 0 -7 4 1 12 21 21 13 27 -39 34 -40 5 -57 14 -85 43 -39 42
-42 63 -13 92 18 18 30 21 96 17 68 -3 74 -2 69 15 -8 31 25 -2 41 -42z
m-1218 -24 c12 -24 21 -51 21 -60 0 -27 31 -17 43 13 3 10 6 7 6 -8 3 -74 -64
-132 -150 -132 l-54 1 31 13 c31 14 59 41 31 30 -18 -6 -87 69 -87 96 0 12 15
29 39 44 22 14 42 30 46 36 3 5 17 10 30 10 18 0 28 -10 44 -43z m-178 -144
c13 -16 12 -17 -3 -4 -10 7 -18 15 -18 17 0 8 8 3 21 -13z m-770 -109 l49 -36
-17 -30 c-10 -16 -30 -37 -45 -46 -34 -20 -35 -30 -5 -42 18 -7 15 -9 -21 -9
-75 -1 -116 31 -133 107 l-7 33 23 -26 c29 -31 30 -31 31 -1 2 32 41 86 61 86
8 0 37 -16 64 -36z m-1401 -74 c0 -5 -15 -10 -32 -10 -25 0 -29 3 -18 10 20
13 50 13 50 0z m2294 -715 c10 -8 27 -38 37 -67 12 -34 23 -53 33 -52 14 2 14
-2 0 -27 -29 -57 -124 -78 -174 -39 l-25 19 24 -6 c22 -6 23 -4 17 23 -17 63
-16 78 4 120 22 48 48 56 84 29z m-1924 -9 c0 -2 -7 -7 -16 -10 -8 -3 -12 -2
-9 4 6 10 25 14 25 6z m-40 -20 c0 -2 -8 -10 -17 -17 -16 -13 -17 -12 -4 4 13
16 21 21 21 13z m2880 -327 c0 -6 -4 -7 -10 -4 -5 3 -10 11 -10 16 0 6 5 7 10
4 6 -3 10 -11 10 -16z m-1083 -63 c-26 -22 -47 -66 -47 -100 0 -28 8 -41 41
-70 23 -19 51 -36 63 -38 19 -3 21 -9 21 -80 0 -42 -2 -79 -5 -82 -14 -13
-155 -27 -279 -27 -192 0 -352 27 -350 60 1 56 38 201 55 218 17 19 75 36 164
49 40 6 155 40 185 55 65 32 187 45 152 15z m306 -235 c9 -16 17 -34 17 -40 0
-13 -119 -73 -131 -66 -3 3 -10 22 -14 42 -3 21 -9 48 -12 60 -4 20 0 22 44
26 26 2 55 4 63 5 9 1 23 -11 33 -27z m-703 -228 c0 -54 -9 -51 -20 7 -6 31
-4 40 6 40 10 0 14 -14 14 -47z"/>
<path d="M2100 513 c-19 -43 -57 -114 -83 -158 -57 -93 -67 -134 -43 -170 21
-33 31 -26 45 30 11 45 18 54 77 100 40 31 49 31 79 -1 29 -32 32 -77 10 -150
-8 -27 -15 -50 -15 -51 0 -2 7 -3 14 -3 8 0 26 15 39 33 23 30 25 41 30 212 4
139 3 174 -6 155 -11 -23 -12 -22 -15 23 -3 44 -5 47 -30 47 -15 0 -36 2 -47
5 -17 4 -26 -7 -55 -72z"/>
</g>
</svg>
